<svg width="60" height="32" viewBox="0 0 60 32" fill="none" xmlns="http://www.w3.org/2000/svg">
<g clip-path="url(#clip0_475_19)">
<path fill-rule="evenodd" clip-rule="evenodd" d="M30.0881 11.896C31.7201 11.096 33.3841 10.52 35.0801 10.168C36.8081 9.78399 38.7281 9.59199 40.8401 9.59199C42.8881 9.59199 44.5841 9.75199 45.9281 10.072C47.2721 10.392 48.3441 10.856 49.1441 11.464C49.9441 12.072 50.5041 12.792 50.8241 13.624C51.1441 14.456 51.3041 15.4 51.3041 16.456C51.3041 17.064 51.2561 17.72 51.1601 18.424C51.0961 19.128 51.0161 19.72 50.9201 20.2L49.259 27.9755H59.186L58.6632 30.7573H48.6647L48.6641 30.76H40.9361L40.0721 27.688H39.7841C38.7601 28.808 37.5601 29.672 36.1841 30.28C34.8401 30.856 33.4961 31.144 32.1521 31.144C31.3841 31.144 30.6321 31.032 29.8961 30.808C29.1601 30.584 28.5041 30.248 27.9281 29.8C27.3521 29.32 26.8881 28.728 26.5361 28.024C26.1841 27.288 26.0081 26.408 26.0081 25.384C26.0081 23.72 26.4561 22.408 27.3521 21.448C28.2801 20.456 29.4801 19.72 30.9521 19.24C32.4561 18.728 34.1361 18.408 35.9921 18.28C37.8801 18.152 39.7681 18.088 41.6561 18.088C41.7201 17.768 41.8001 17.32 41.8961 16.744C41.9921 16.136 42.0401 15.608 42.0401 15.16C42.0401 14.584 41.8801 14.056 41.5601 13.576C41.2721 13.064 40.6481 12.808 39.6881 12.808C38.5681 12.808 37.7361 13.144 37.1921 13.816C36.6801 14.456 36.3441 15.24 36.1841 16.168H29.1761L30.0881 11.896ZM41.1281 20.344H40.2641C39.3361 20.344 38.5361 20.472 37.8641 20.728C37.2241 20.952 36.6961 21.256 36.2801 21.64C35.8961 22.024 35.6081 22.456 35.4161 22.936C35.2241 23.416 35.1281 23.896 35.1281 24.376C35.1281 25.144 35.3201 25.72 35.7041 26.104C36.1201 26.488 36.6001 26.68 37.1441 26.68C37.8161 26.68 38.4721 26.44 39.1121 25.96C39.7841 25.48 40.2001 24.84 40.3601 24.04L41.1281 20.344Z" fill="white"/>
<path d="M19.9677 0.76001H9.02368L10.6372 28.4519H0.813965L0.977022 31.2338H10.7993L10.7997 31.24H22.1277L31.7218 11.1742H26.9698L21.5997 21.4L19.9677 0.76001Z" fill="white"/>
</g>
<defs>
<clipPath id="clip0_475_19">
<rect width="60" height="32" fill="white"/>
</clipPath>
</defs>
</svg>
